<svg width="20" height="20" viewBox="0 0 20 20" fill="none" xmlns="http://www.w3.org/2000/svg">
<path d="M14 6L16 4M16 4L18 2M16 4L14 2M16 4L18 6M3 1C2.46957 1 1.96086 1.21071 1.58579 1.58579C1.21071 1.96086 1 2.46957 1 3V4C1 12.284 7.716 19 16 19H17C17.5304 19 18.0391 18.7893 18.4142 18.4142C18.7893 18.0391 19 17.5304 19 17V13.72C18.9998 13.5102 18.9337 13.3058 18.8109 13.1356C18.6882 12.9655 18.515 12.8383 18.316 12.772L13.823 11.274C13.5947 11.1981 13.3466 11.2071 13.1244 11.2993C12.9021 11.3915 12.7205 11.5607 12.613 11.776L11.483 14.033C9.03429 12.9264 7.07312 10.9649 5.967 8.516L8.224 7.388C8.43925 7.28045 8.60851 7.0989 8.70072 6.87665C8.79293 6.65439 8.8019 6.40634 8.726 6.178L7.228 1.683C7.16148 1.48398 7.03404 1.31093 6.86372 1.18835C6.6934 1.06577 6.48884 0.99988 6.279 1H3Z" stroke="white" stroke-width="2" stroke-linecap="round" stroke-linejoin="round"/>
</svg>
